<?xml version="1.0" encoding="utf-8"?>
<!-- Generator: Adobe Illustrator 21.1.0, SVG Export Plug-In . SVG Version: 6.00 Build 0)  -->
<svg version="1.1" id="Layer_1" xmlns="http://www.w3.org/2000/svg" xmlns:xlink="http://www.w3.org/1999/xlink" x="0px" y="0px"
	 viewBox="0 0 100.4 100.4" style="enable-background:new 0 0 100.4 100.4;" xml:space="preserve">
<style type="text/css">
	.st0{fill:#FFFFFF;}
</style>
<g>
	<path class="st0" d="M50,17c-18.6,0-33.7,15.1-33.7,33.7S31.4,84.3,50,84.3c18.6,0,33.7-15.1,33.7-33.7S68.5,17,50,17z M50,80.7
		c-16.6,0-30-13.5-30-30s13.5-30,30-30s30,13.5,30,30S66.5,80.7,50,80.7z"/>
	<path class="st0" d="M58.5,45.2l-7.3,7.3V26.6c0-1-0.8-1.8-1.8-1.8s-1.8,0.8-1.8,1.8v30.2c0,0.1,0,0.2,0,0.4c0,0.1,0,0.1,0,0.1
		c0,0.1,0,0.1,0.1,0.2c0,0.1,0.1,0.1,0.1,0.2c0,0,0,0.1,0.1,0.1c0.1,0.2,0.3,0.4,0.5,0.5c0,0,0.1,0,0.1,0.1c0.1,0,0.1,0.1,0.2,0.1
		c0.1,0,0.1,0,0.2,0.1c0.1,0,0.1,0,0.2,0c0.1,0,0.2,0,0.4,0s0.2,0,0.4,0c0.1,0,0.1,0,0.2-0.1c0.1,0,0.1,0,0.2-0.1
		c0.1,0,0.1-0.1,0.2-0.1c0,0,0.1,0,0.1-0.1c0.1-0.1,0.2-0.1,0.3-0.2L61,47.7c0.7-0.7,0.7-1.8,0-2.5C60.3,44.5,59.2,44.5,58.5,45.2z"
		/>
	<path class="st0" d="M50,9C27,9,8.4,27.7,8.4,50.7S27,92.3,50,92.3s41.6-18.7,41.6-41.6S72.9,9,50,9z M50,88.7c-21,0-38-17.1-38-38
		s17.1-38,38-38s38,17.1,38,38S70.9,88.7,50,88.7z"/>
</g>
</svg>
