<?xml version="1.0" encoding="utf-8"?>
<!-- Generator: Adobe Illustrator 21.1.0, SVG Export Plug-In . SVG Version: 6.00 Build 0)  -->
<svg version="1.1" id="Layer_1" xmlns="http://www.w3.org/2000/svg" xmlns:xlink="http://www.w3.org/1999/xlink" x="0px" y="0px"
	 viewBox="0 0 100.4 100.4" style="enable-background:new 0 0 100.4 100.4;" xml:space="preserve">
<style type="text/css">
	.st0{fill:#FFFFFF;}
</style>
<g>
	<path class="st0" d="M49.2,67.6c-2.7,1.6-6.5,0.8-8.1-1.8L29.6,47.2c-1.6-2.6-0.8-6.1,1.8-7.7l-0.8-1.3l0.8,1.3l10-6.2L32.7,19
		l-10,6.2l0,0c-9.9,6.1-9.5,22,0.8,38.7c4.7,7.7,10.7,13.7,16.7,17.1c3.6,2,7.1,3,10.4,3c2.8,0,5.3-0.7,7.6-2.1l9.7-6L59,61.6
		L49.2,67.6z M56.6,79.4c-5.2,3.2-11,1.3-15-0.9C36,75.3,30.4,69.5,26,62.3c-9.4-15.2-10.1-29.4-1.8-34.6l-0.8-1.3l0.8,1.3l7.5-4.6
		l5.7,9.2L29.9,37l0,0c-4,2.5-5.3,7.8-2.8,11.8l11.5,18.6c2.5,4,8.2,5.3,12.2,2.8l7.2-4.4l5.7,9.2L56.6,79.4z"/>
	<path class="st0" d="M59.6,40.6c2.2,3.4,2.8,7.6,1.5,11.5l2.8,0.9c1.6-4.8,0.9-9.9-1.8-14.1c-2.8-4.3-7.6-7.1-12.7-7.4l-0.2,3
		C53.5,34.8,57.3,37,59.6,40.6z"/>
	<path class="st0" d="M51.4,21.6l-0.3,3c7,0.8,13.2,4.6,17,10.5c3.7,5.7,4.7,12.7,2.9,19.2l2.9,0.8c2.1-7.4,0.9-15.3-3.2-21.7
		C66.2,26.9,59.3,22.5,51.4,21.6z"/>
	<path class="st0" d="M78,28.6C72.4,20,63.4,14.3,53.3,12.9l-0.4,3c9.3,1.3,17.5,6.5,22.6,14.4c5,7.7,6.5,17.2,4.1,26l2.9,0.8
		C85.1,47.4,83.5,37,78,28.6z"/>
</g>
</svg>
